<svg version="1.2" xmlns="http://www.w3.org/2000/svg" viewBox="0 0 1124 964" width="1124" height="964">
	<title>logo-unblur</title>
	<style>
		.s0 { fill: #ffe095 } 
		.s1 { fill: #297bb3;stroke: #000000;stroke-miterlimit:100;stroke-width: 0 } 
		.s2 { fill: #297bb3 } 
	</style>
	<path id="Ellipse 2" fill-rule="evenodd" class="s0" d="m566 264c183.9 0 333 148.4 333 331.5 0 51.9-12 101-33.4 144.8-88.4-7.9-188.9-12.3-295.6-12.3-109.7 0-213 4.8-303.2 13.1-21.7-44-33.8-93.4-33.8-145.6 0-183.1 149.1-331.5 333-331.5z"/>
	<path id="Shape 5" fill-rule="evenodd" class="s1" d="m606 710"/>
	<g id="Rects">
		<path id="Rectangle 1" fill-rule="evenodd" class="s0" d="m564.5 41c6.9 0 12.5 5.6 12.5 12.5v161c0 6.9-5.6 12.5-12.5 12.5-6.9 0-12.5-5.6-12.5-12.5v-161c0-6.9 5.6-12.5 12.5-12.5z"/>
		<path id="Rectangle 2" fill-rule="evenodd" class="s0" d="m785.9 116.4c5.7 2.6 8.3 9.4 5.6 15.2l-55.2 120.6c-2.7 5.7-9.5 8.3-15.2 5.6-5.8-2.6-8.3-9.4-5.7-15.2l55.3-120.6c2.6-5.7 9.4-8.3 15.2-5.6z"/>
		<path id="Rectangle 3" fill-rule="evenodd" class="s0" d="m839.7 333.3l105.9-99.4c4.1-3.7 10.4-3.5 14.2 0.5l1.4 1.5c3.8 4.1 3.6 10.4-0.4 14.2l-106 99.3c-4 3.8-10.4 3.6-14.1-0.4l-1.5-1.6c-3.8-4-3.6-10.3 0.5-14.1z"/>
		<path id="Rectangle 4" fill-rule="evenodd" class="s0" d="m930.5 476.4l128.5-43.3c4.9-1.7 7.6-7.1 5.9-12l-1.3-4c-1.7-5-7.1-7.7-12-6l-128.5 43.3c-5 1.7-7.6 7.1-5.9 12.1l1.3 4c1.7 4.9 7.1 7.6 12 5.9z"/>
		<path id="Rectangle 5" fill-rule="evenodd" class="s0" d="m948 591h130c5.5 0 10 4.5 10 10v3c0 5.5-4.5 10-10 10h-130c-5.5 0-10-4.5-10-10v-3c0-5.5 4.5-10 10-10z"/>
		<path id="Rectangle 6" fill-rule="evenodd" class="s0" d="m49 591h129c6.1 0 11 4.9 11 11 0 6.1-4.9 11-11 11h-129c-6.1 0-11-4.9-11-11 0-6.1 4.9-11 11-11z"/>
		<path id="Rectangle 7" fill-rule="evenodd" class="s0" d="m68.4 430.6l133.2 45.3c5.5 1.9 11.4-1.1 13.3-6.5l0.4-1.3c1.9-5.4-1.1-11.4-6.5-13.3l-133.2-45.3c-5.5-1.9-11.5 1.1-13.3 6.6l-0.4 1.2c-1.9 5.4 1 11.4 6.5 13.3z"/>
		<path id="Rectangle 11" fill-rule="evenodd" class="s0" d="m166.9 252.1l103.1 94.3c4.6 4.2 11.7 3.9 15.8-0.7l0.4-0.4c4.2-4.6 3.9-11.7-0.7-15.9l-103.1-94.3c-4.5-4.1-11.6-3.8-15.8 0.7l-0.4 0.5c-4.2 4.5-3.9 11.6 0.7 15.8z"/>
		<path id="Rectangle 9" fill-rule="evenodd" class="s0" d="m342.3 118.7l3.9-1.9c5-2.3 11-0.2 13.3 4.8l58.4 123.4c2.4 5 0.3 10.9-4.7 13.3l-4 1.9c-5 2.3-10.9 0.2-13.3-4.8l-58.4-123.4c-2.4-5-0.2-10.9 4.8-13.3z"/>
		<path id="Rectangle 10" fill-rule="evenodd" class="s0" d="m564.5 41c6.9 0 12.5 5.6 12.5 12.5v161c0 6.9-5.6 12.5-12.5 12.5-6.9 0-12.5-5.6-12.5-12.5v-161c0-6.9 5.6-12.5 12.5-12.5z"/>
	</g>
	<path id="Rectangle 17" fill-rule="evenodd" class="s2" d="m599.5 680.9h-0.1v1.9h-74.3v-1.9-4.2h0.3l14.4-177.2h-118.6v-39.2h119.5v-111.2h42.2v111.2h117.4v39.2h-115.6l14.4 177.2h0.3v2.6zm14.3 40c0 41.7 11.1 79.5 29.1 106.6q-2.4-0.5-4.9-0.5c-27.3 0-51 47.5-63.1 117.4h-1.3v-105.6c12-5.6 20.6-19.4 20.6-35.5 0-21.1-14.5-38.1-32.5-38.1-17.9 0-32.4 17-32.4 38.1 0 16.6 9 30.7 21.6 35.9v105.2h-1.2c-12-70.5-35.8-118.5-63.2-118.5q-2.1 0-4.1 0.4c17.5-27 28.4-64.3 28.4-105.4zm-103.3-29.9h103.6c5.5 0 10 4.5 10 10v0.6c0 5.5-4.5 10-10 10h-103.6c-5.6 0-10-4.5-10-10v-0.6c0-5.5 4.4-10 10-10z"/>
</svg>